<svg width="16" height="16" viewBox="0 0 16 16" fill="none" xmlns="http://www.w3.org/2000/svg">
<path d="M12.1475 4.60256L8.39751 0.852557C8.17776 0.632807 7.82151 0.632807 7.60251 0.852557L3.85251 4.60256C3.63201 4.82231 3.63201 5.17856 3.85251 5.39756C4.07301 5.61656 4.42776 5.61806 4.64751 5.39756L7.43751 2.60756V10.2501C7.43751 10.5606 7.68951 10.8126 8.00001 10.8126C8.31051 10.8126 8.56251 10.5606 8.56251 10.2501V2.60756L11.3525 5.39756C11.462 5.50781 11.606 5.56256 11.75 5.56256C11.894 5.56256 12.038 5.50856 12.1475 5.39756C12.3673 5.17781 12.3673 4.82231 12.1475 4.60256Z" fill="#5B7083"/>
<path d="M13.781 15.458H2.219C1.271 15.458 0.5 14.687 0.5 13.739V9.5C0.5 9.1895 0.752 8.9375 1.0625 8.9375C1.373 8.9375 1.625 9.1895 1.625 9.5V13.739C1.625 14.0668 1.89125 14.333 2.219 14.333H13.781C14.1088 14.333 14.375 14.0668 14.375 13.739V9.5C14.375 9.1895 14.627 8.9375 14.9375 8.9375C15.248 8.9375 15.5 9.1895 15.5 9.5V13.739C15.5 14.687 14.729 15.458 13.781 15.458Z" fill="#5B7083"/>
</svg>
